<?xml version="1.0" encoding="utf-8"?>
<!-- Generator: Adobe Illustrator 26.0.3, SVG Export Plug-In . SVG Version: 6.00 Build 0)  -->
<svg version="1.1" id="Layer_1" xmlns="http://www.w3.org/2000/svg" xmlns:xlink="http://www.w3.org/1999/xlink" x="0px" y="0px"
	 viewBox="0 0 481.9 705.7" style="enable-background:new 0 0 481.9 705.7;" xml:space="preserve">
<style type="text/css">
	.st0{fill-rule:evenodd;clip-rule:evenodd;}
</style>
<g id="Layer_2_00000142875490881235303480000014115076128004298884_">
	<g id="Layer_1-2">
		<path d="M24.4,666.9c-2.3,0-4.5,0.4-6.6,1.3c-2,0.8-3.8,2.1-5.2,3.7c-1.5,1.7-2.7,3.6-3.4,5.7c-0.9,2.4-1.3,5-1.2,7.6
			c0,2.6,0.4,5.2,1.3,7.6c0.8,2.1,2.1,4.1,3.7,5.7c1.5,1.6,3.4,2.8,5.5,3.7c2.1,0.9,4.4,1.3,6.7,1.3c1.6,0,3.2-0.2,4.8-0.7
			c1.4-0.4,2.6-1.1,3.8-2v-14H26v-2.4h14.2v17.5c-1.1,0.6-2.3,1.2-3.5,1.7c-1.2,0.5-2.5,0.9-3.8,1.2c-1.5,0.4-3,0.6-4.5,0.7
			c-1.6,0.2-3.5,0.2-5.6,0.2c-2.1,0-4.2-0.2-6.3-0.7c-1.9-0.5-3.8-1.2-5.5-2.1c-1.7-0.9-3.2-2-4.6-3.2c-2.7-2.4-4.6-5.6-5.7-9.1
			C0.2,688.8,0,687,0,685.1c0-1.8,0.2-3.7,0.7-5.5c0.5-1.8,1.2-3.4,2.1-5c0.9-1.6,2.1-3,3.4-4.3c1.3-1.3,2.8-2.4,4.5-3.4
			c1.7-1,3.5-1.7,5.4-2.2c2-0.5,4.1-0.8,6.2-0.8c2,0,3.9,0.3,5.8,0.8c1.7,0.5,3.4,1.3,4.9,2.3c1.4,0.9,2.8,2,3.9,3.3
			c1.1,1.2,2.1,2.5,3,3.9l-2.9,1.9c-1.3-2.8-3.2-5.2-5.6-7.1C29.4,667.6,26.9,666.8,24.4,666.9z"/>
		<path d="M115.6,664.9h13.8c2.1,0,4.2,0.2,6.3,0.8c1.6,0.4,3.1,1.2,4.5,2.2c1.2,0.9,2.1,2,2.7,3.3c0.6,1.3,0.9,2.7,0.9,4.2
			c0,1.2-0.2,2.4-0.7,3.5c-0.5,1.1-1.2,2.1-2,2.9c-0.9,0.9-1.9,1.7-3.1,2.3c-1.3,0.7-2.6,1.2-4,1.5l14.5,19.3h-7.7L127,686h-4.7
			v18.7h-6.7L115.6,664.9z M122.3,684h3.9c1.4,0,2.8-0.2,4.2-0.6c1.2-0.4,2.3-0.9,3.3-1.7c1.9-1.5,3-3.8,3-6.2
			c0-1.1-0.2-2.2-0.6-3.3c-0.4-1-1-1.8-1.7-2.6c-0.8-0.7-1.7-1.3-2.7-1.7c-1.1-0.4-2.2-0.6-3.4-0.6h-5.9L122.3,684z"/>
		<path d="M244.1,705.7c-3.9,0-7.8-1-11.2-2.9c-1.6-0.9-3.1-2-4.4-3.3c-1.3-1.3-2.5-2.7-3.4-4.3c-0.9-1.6-1.7-3.2-2.2-5
			c-0.5-1.8-0.8-3.7-0.8-5.6c0-1.9,0.3-3.7,0.8-5.5c1-3.5,2.9-6.6,5.6-9.1c1.3-1.3,2.8-2.3,4.4-3.2c1.7-0.9,3.4-1.6,5.3-2.1
			c3.9-1,7.9-1,11.8,0c1.8,0.5,3.6,1.2,5.3,2.1c1.6,0.9,3.1,2,4.4,3.2c2.6,2.5,4.6,5.6,5.6,9.1c0.5,1.8,0.8,3.6,0.8,5.5
			c0,1.9-0.3,3.8-0.8,5.6c-0.5,1.8-1.2,3.4-2.2,5c-0.9,1.6-2.1,3-3.4,4.3c-1.3,1.3-2.8,2.4-4.4,3.3
			C251.9,704.7,248,705.7,244.1,705.7L244.1,705.7z M244.1,703.7c2.1,0,4.2-0.5,6-1.4c1.8-1,3.3-2.3,4.4-4c1.3-1.8,2.2-3.9,2.7-6
			c0.6-2.5,1-5.1,0.9-7.7c0-2.5-0.3-5.1-0.9-7.5c-0.5-2.1-1.5-4.1-2.7-5.9c-1.1-1.6-2.7-2.9-4.4-3.8c-1.9-0.9-3.9-1.4-6-1.4
			c-2.1,0-4.2,0.4-6.1,1.4c-1.8,0.9-3.3,2.2-4.4,3.8c-1.2,1.8-2.1,3.8-2.7,5.9c-0.6,2.5-0.9,5-0.9,7.5c0,2.6,0.3,5.1,0.9,7.7
			c0.5,2.1,1.4,4.2,2.7,6C235.9,701.7,239.9,703.8,244.1,703.7L244.1,703.7z"/>
		<path d="M338.9,664.9h6.7v25.8c0,1.6,0.3,3.3,0.9,4.8c0.6,1.5,1.4,2.8,2.5,3.9c1.1,1.1,2.4,2,3.9,2.7c3.3,1.3,7,1.3,10.3,0
			c2.9-1.2,5.2-3.6,6.3-6.6c0.6-1.5,0.9-3.2,0.9-4.8v-25.8h3v25.8c0,2-0.3,3.9-1,5.8c-0.7,1.8-1.7,3.4-3.1,4.8
			c-1.6,1.4-3.4,2.5-5.4,3.2c-2.6,0.8-5.2,1.2-7.9,1.2c-2.5,0-4.9-0.4-7.3-1.2c-2-0.7-3.8-1.8-5.3-3.2c-1.4-1.3-2.5-3-3.2-4.8
			c-0.7-1.9-1.1-3.8-1.1-5.8L338.9,664.9z"/>
		<path d="M454.3,664.9h12.6c2,0,3.9,0.2,5.9,0.8c1.7,0.4,3.3,1.2,4.7,2.2c1.3,0.9,2.4,2.2,3.2,3.6c0.8,1.5,1.2,3.1,1.2,4.8
			c0,1.6-0.4,3.3-1.1,4.7c-0.7,1.3-1.8,2.5-3,3.3c-1.3,0.9-2.7,1.6-4.2,2c-1.6,0.4-3.2,0.6-4.8,0.6c-0.7,0-1.4,0-2.2,0
			s-1.5-0.1-2.2-0.2s-1.4-0.1-2-0.2c-0.5-0.1-1-0.1-1.4-0.2v18.4h-6.7L454.3,664.9z M461,684.1c0.7,0.2,1.5,0.4,2.4,0.6
			c0.9,0.2,1.8,0.3,2.6,0.3c1.3,0,2.6-0.2,3.8-0.6c1-0.4,1.9-1,2.7-1.8c0.7-0.8,1.3-1.6,1.6-2.6c0.4-1,0.5-2.1,0.5-3.2
			c0-1.2-0.2-2.5-0.7-3.6c-0.4-1-1.1-2-1.9-2.8c-0.8-0.8-1.8-1.4-2.8-1.8c-1.1-0.4-2.3-0.6-3.5-0.6H461V684.1z"/>
		<path d="M18.7,590.3v53.3H0V532.4h18.7v50.7h55.9v-50.7h18.7v111.2H74.6v-53.3H18.7z"/>
		<path d="M165.8,529.8l52.4,113.8h-19l-17-37.1h-47.7l-17.6,37.1h-9.3l53.6-113.8H165.8z M137.8,599.3h40.9l-20.2-44L137.8,599.3z"
			/>
		<path d="M232.5,532.4h19.1l43.3,85.3h0.9l42.5-85.3H357v111.2h-18.8v-91.1h-0.6L292,643.6h-3.8L242,553.2h-1.3v90.4h-8.2
			L232.5,532.4z"/>
		<path d="M429.5,529.8l52.4,113.8h-19l-17-37.1h-47.7l-17.6,37.1h-9.3l53.6-113.8H429.5z M401.5,599.3h41l-20.2-44L401.5,599.3z"/>
		<path class="st0" d="M127.5,379.5c57.9-51.1,118.2-103.4,150.7-168.8c6.8-13.4,11.7-27.6,14.6-42.3c2.9,6.5,5.3,10.8,7.9,17.4
			c0.6,1.9,1.3,4.3,1.6,5.4c2.9,11,4.3,22.3,4.1,33.7c-0.2,22.4-7.1,43.3-16.6,62.9c-22,45.3-60.7,84.1-100.2,120.9
			c-36.9,34.3-78.4,67.2-117.1,101.5H0v-12.8C38.1,455.2,84.9,417.2,127.5,379.5z M248.5,16.7l3.3,9.1c0.8,2.5,1.6,5,2.3,7.5
			c3.2,11.5,4.8,23.3,4.9,35.2c0.3,23.3-6,45-15.1,65.3c-21,46.8-58.8,86.3-97.7,123.5C99.9,301.6,46.7,342.8,0,387.7V0h240.3
			c0.8,1.6,1.6,3.1,2.4,4.7C244.8,8.6,246.8,12.6,248.5,16.7L248.5,16.7z M471,399.8c-15.7-21.1-33-41.8-34.2-69.9
			c-0.3-8.2,1.6-16.4,2.9-28.8c-1.5,14.5-58.5,50.3-68.8,67.3c-0.3,0.5-0.6,1-0.9,1.5c-6,10.7-9,23-9.6,35.9
			c-12.8,16.9-56.4,45.5-65.2,60.2c-0.3,0.5-0.6,1-0.9,1.5c-7.1,12.6-9.9,27.6-9.7,42.9H186c1.2-1,2.4-2.1,3.6-3.1
			c53.8-47.3,108.7-96.5,136.8-156.6c12-25.6,17.5-53.9,12-83.8c-2.6-14.1-8.8-28.1-15.4-42.5c-1.4-3.1-8.7-18.1-16.1-32.4
			c-4.3-8.7-8.8-17.4-13.6-26c2.7-14.6,3-29.6,1-44.3c-2-14.9-7.3-30.3-14.6-45.5c-12.1-25.2-24-50.9-38.7-76h241v415.3
			C478.4,410,474.8,404.9,471,399.8z"/>
		<path class="st0" d="M405.6,509.5H422c0,0-22.9-31.4-27.1-37.1s-21.3-30.6-23.1-49.9c-2.3-23.6,2.4-33.9,2.4-33.9
			s-19.3,24.6-10,54.3C370.8,466.5,405.6,509.5,405.6,509.5z"/>
		<path class="st0" d="M411.6,369c0,0-24.4,20.8-12,50.3c7.1,16.7,24.5,35.7,34.4,48.3s31.1,41.9,31.1,41.9h16.8v-19.2
			c-4-6.5-46.4-56.5-53.9-69.5c-11-16.4-16.9-28.1-18-35.9C408.5,373.4,411.6,369,411.6,369z"/>
		<path class="st0" d="M337,457.2c0,0-6.4,3.6-0.4,24.4c3.4,11.7,14.8,28,14.8,28h-24c-4-10.7-4.2-22.4-0.4-33.1
			C333.4,458.3,337,457.2,337,457.2z"/>
	</g>
</g>
</svg>
