<svg xmlns="http://www.w3.org/2000/svg" viewBox="0 0 481.89 705.67"><defs><style>.cls-1{fill:#fff;}.cls-2,.cls-3{fill:#fc0;}.cls-3{fill-rule:evenodd;}</style></defs><title>Hama 1</title><g id="Layer_2" data-name="Layer 2"><g id="Layer_1-2" data-name="Layer 1"><path class="cls-1" d="M24.38,666.86a16.75,16.75,0,0,0-6.63,1.29,15.35,15.35,0,0,0-5.25,3.66,16.71,16.71,0,0,0-3.44,5.74,22,22,0,0,0-1.23,7.57,20.43,20.43,0,0,0,1.34,7.58,17.33,17.33,0,0,0,3.66,5.74,16,16,0,0,0,5.46,3.66A17.59,17.59,0,0,0,25,703.39a14.67,14.67,0,0,0,4.75-.72,12.45,12.45,0,0,0,3.77-2v-14H26V684.3H40.24v17.51a33.91,33.91,0,0,1-3.52,1.66,28.36,28.36,0,0,1-3.81,1.22,32.81,32.81,0,0,1-4.52.74c-1.65.16-3.51.24-5.59.24a26.14,26.14,0,0,1-6.27-.74A24,24,0,0,1,11,702.84a21.6,21.6,0,0,1-4.58-3.23,19.91,19.91,0,0,1-5.67-9.07A19.19,19.19,0,0,1,0,685.12a20.35,20.35,0,0,1,.74-5.45,20.89,20.89,0,0,1,2.12-5,20.36,20.36,0,0,1,3.36-4.31A21.67,21.67,0,0,1,10.69,667a23.34,23.34,0,0,1,5.41-2.2,24.27,24.27,0,0,1,6.25-.78,19.08,19.08,0,0,1,5.84.85,20.68,20.68,0,0,1,4.89,2.28A20.1,20.1,0,0,1,37,670.41,25,25,0,0,1,40,674.27l-2.89,1.94a20,20,0,0,0-5.6-7.09A11.71,11.71,0,0,0,24.38,666.86Z"/><path class="cls-1" d="M115.64,664.92h13.78a23.21,23.21,0,0,1,6.3.77,13.47,13.47,0,0,1,4.5,2.16,9.06,9.06,0,0,1,2.71,3.29,9.42,9.42,0,0,1,.92,4.15,8.62,8.62,0,0,1-.7,3.48,9.61,9.61,0,0,1-2,2.91,12.46,12.46,0,0,1-3.08,2.26,16.36,16.36,0,0,1-4,1.47l14.49,19.32h-7.74L127,686h-4.69v18.72h-6.69ZM122.33,684h3.86a13.8,13.8,0,0,0,4.16-.6,10.52,10.52,0,0,0,3.3-1.7,7.67,7.67,0,0,0,3-6.19,8.36,8.36,0,0,0-.63-3.27,7.59,7.59,0,0,0-1.74-2.57,7.91,7.91,0,0,0-2.66-1.67,9.22,9.22,0,0,0-3.37-.6h-5.89Z"/><path class="cls-1" d="M244.12,705.67a22.85,22.85,0,0,1-11.18-2.88,22.06,22.06,0,0,1-4.43-3.31,20.8,20.8,0,0,1-3.4-4.27,21.48,21.48,0,0,1-2.17-5,20.36,20.36,0,0,1-.77-5.6,19.63,19.63,0,0,1,.77-5.49,20,20,0,0,1,5.57-9.07,22,22,0,0,1,4.43-3.21,22.45,22.45,0,0,1,5.26-2.08,24.66,24.66,0,0,1,11.83,0,22.28,22.28,0,0,1,5.26,2.08,21.7,21.7,0,0,1,4.43,3.21,20,20,0,0,1,5.57,9.07,19.27,19.27,0,0,1,.77,5.49,20,20,0,0,1-.77,5.59,21,21,0,0,1-2.17,5,20.47,20.47,0,0,1-3.4,4.27,21.78,21.78,0,0,1-4.43,3.31,22.84,22.84,0,0,1-11.17,2.88Zm0-2a12.38,12.38,0,0,0,6-1.43,12.76,12.76,0,0,0,4.41-4,18.91,18.91,0,0,0,2.72-6,29.81,29.81,0,0,0,.93-7.65,28.53,28.53,0,0,0-.93-7.5,18.07,18.07,0,0,0-2.72-5.89,12.58,12.58,0,0,0-4.41-3.84,12.94,12.94,0,0,0-6-1.37,13.16,13.16,0,0,0-6.13,1.37,12.36,12.36,0,0,0-4.42,3.84,17.8,17.8,0,0,0-2.67,5.89,29.43,29.43,0,0,0-.9,7.5,30.75,30.75,0,0,0,.9,7.65,18.63,18.63,0,0,0,2.67,6,12.3,12.3,0,0,0,10.55,5.4Z"/><path class="cls-1" d="M338.93,664.92h6.68v25.83a12.9,12.9,0,0,0,.88,4.79,11.52,11.52,0,0,0,2.5,3.93,11.84,11.84,0,0,0,3.91,2.66,14.05,14.05,0,0,0,10.26,0,11.38,11.38,0,0,0,6.34-6.59,13.1,13.1,0,0,0,.86-4.79V664.92h2.95v25.83a16.6,16.6,0,0,1-1,5.76,12.59,12.59,0,0,1-3.1,4.75,15,15,0,0,1-5.42,3.23,23.54,23.54,0,0,1-7.93,1.18,20.7,20.7,0,0,1-7.28-1.18,15.3,15.3,0,0,1-5.32-3.25,13.5,13.5,0,0,1-3.24-4.8,15.38,15.38,0,0,1-1.1-5.83Z"/><path class="cls-1" d="M454.34,664.92h12.6a21.6,21.6,0,0,1,5.85.76,14.6,14.6,0,0,1,4.74,2.21,10.88,10.88,0,0,1,3.19,3.57,9.81,9.81,0,0,1,1.17,4.83,9.54,9.54,0,0,1-1.13,4.73,10.18,10.18,0,0,1-3,3.35,13.1,13.1,0,0,1-4.2,2,18.07,18.07,0,0,1-4.79.64c-.68,0-1.41,0-2.17-.05s-1.5-.1-2.2-.16-1.36-.14-2-.22a11.56,11.56,0,0,1-1.44-.25v18.43h-6.69ZM461,684.07c.74.21,1.55.41,2.41.6a12.36,12.36,0,0,0,2.65.28,10.15,10.15,0,0,0,3.78-.64,7.51,7.51,0,0,0,2.69-1.77,7.3,7.3,0,0,0,1.6-2.63,9.67,9.67,0,0,0,.53-3.22,9.33,9.33,0,0,0-.7-3.64,8.47,8.47,0,0,0-1.9-2.79,8.58,8.58,0,0,0-2.83-1.77,9.61,9.61,0,0,0-3.49-.63H461Z"/><path class="cls-2" d="M18.68,590.27v53.32H0V532.4H18.68v50.68H74.55V532.4H93.23V643.59H74.55V590.27Z"/><path class="cls-2" d="M165.79,529.84l52.37,113.75h-19l-17-37.12H134.5l-17.56,37.12H107.6l53.56-113.75Zm-28,69.45h40.95l-20.19-44Z"/><path class="cls-2" d="M232.52,532.4H251.6l43.27,85.33h.87l42.47-85.33H357V643.59H338.21V552.51h-.64L292,643.59h-3.83L242,553.15h-1.27v90.44h-8.23Z"/><path class="cls-2" d="M429.53,529.84l52.36,113.75h-19l-17-37.12H398.24l-17.57,37.12h-9.33L424.9,529.84Zm-28,69.45h40.95l-20.2-44Z"/><path class="cls-3" d="M127.48,379.55c57.91-51.14,118.18-103.38,150.67-168.78a167.11,167.11,0,0,0,14.64-42.26c2.86,6.49,5.32,10.8,7.86,17.4.6,1.85,1.27,4.31,1.56,5.39A121.52,121.52,0,0,1,306.29,225c-.21,22.38-7.06,43.32-16.61,62.94C267.64,333.28,229,372,189.46,408.8,152.56,443.13,111.07,476,72.38,510.33H0V497.49C38.13,455.17,84.86,417.18,127.48,379.55Zm121-362.81,3.33,9.14c.8,2.5,1.57,5,2.27,7.48a134.87,134.87,0,0,1,4.85,35.25c.33,23.32-6,45-15.07,65.26-21,46.8-58.83,86.26-97.72,123.48C99.94,301.57,46.68,342.83,0,387.71V0H240.34q1.2,2.34,2.35,4.68A130.47,130.47,0,0,1,248.48,16.74ZM471,399.79c-15.73-21.13-33-41.77-34.17-69.93-.33-8.17,1.56-16.42,2.85-28.77-1.52,14.53-58.52,50.27-68.76,67.3-.3.5-.59,1-.87,1.5-6,10.69-8.95,23-9.57,35.85-12.8,16.92-56.41,45.52-65.25,60.21q-.45.75-.87,1.5c-7.14,12.64-9.91,27.58-9.68,42.88H186c1.2-1,2.4-2.08,3.58-3.12,53.83-47.31,108.65-96.49,136.82-156.63,12-25.65,17.54-53.88,12-83.84-2.62-14.08-8.82-28.1-15.41-42.49-1.41-3.14-8.69-18.07-16.12-32.39-4.29-8.68-8.76-17.35-13.63-26a141.25,141.25,0,0,0,1-44.32c-2.05-14.94-7.29-30.28-14.59-45.53-12.06-25.2-24-50.86-38.73-76h241V415.28Q476.7,407.41,471,399.79Z"/><path class="cls-3" d="M405.63,509.53H422s-22.89-31.41-27.15-37.13-21.29-30.56-23.15-49.92c-2.27-23.56,2.39-33.94,2.39-33.94s-19.28,24.56-10,54.31C370.77,466.54,405.63,509.53,405.63,509.53Z"/><path class="cls-3" d="M411.62,369s-24.38,20.82-12,50.32C406.7,436.06,424.13,455,434,467.61s31.14,41.92,31.14,41.92h16.77V490.37c-4-6.53-46.4-56.52-53.9-69.49-11-16.36-16.9-28.08-18-35.94C408.47,373.44,411.62,369,411.62,369Z"/><path class="cls-3" d="M337,457.22s-6.39,3.6-.4,24.36c3.37,11.68,14.78,27.95,14.78,27.95h-24a48.6,48.6,0,0,1-.4-33.14C333.37,458.29,337,457.22,337,457.22Z"/></g></g></svg>