<svg xmlns="http://www.w3.org/2000/svg" viewBox="0 0 533.938 910.979">
  <defs>
    <style>
      .cls-1 {
        fill: #f7f7f7;
      }
    </style>
  </defs>
  <g id="Group_332" data-name="Group 332" transform="translate(-111.666 -4889.26)">
    <path id="Path_74" data-name="Path 74" class="cls-1" d="M35.213,847.428c1.742,3.135,3.135,6.619,4.877,9.754-4.529-31.353-2.439-61.313,5.574-88.834C64.476,639.1,183.966,548.878,283.947,460.741c67.932-59.919,138.65-121.232,176.622-197.872,7.664-15.677,13.935-32.05,17.07-49.468,3.484,7.664,6.619,15.328,9.754,22.992.348,1.393.7,2.439,1.045,3.832,3.832,13.238,4.877,26.476,4.877,39.365-.348,26.128-8.361,50.862-19.509,73.854-25.779,53.3-71.067,98.588-117.4,141.785-95.8,89.53-218.078,170.352-272.423,281.132A237.243,237.243,0,0,0,59.6,891.671a166.306,166.306,0,0,1-.348,18.463,19.319,19.319,0,0,0,2.787-2.09c.348,1.045.348,2.09.7,3.135l1.742-1.742v-5.225C91.649,780.89,256.426,699.721,357.1,610.887,420.159,555.5,484.258,497.668,517.353,427.3c14.283-29.96,20.554-63.054,13.935-98.239-3.135-16.373-10.1-33.095-18.464-49.468-.348-2.09-9.754-21.25-18.463-37.972-4.877-10.1-10.1-20.205-16.025-30.308a161.413,161.413,0,0,0,1.045-51.907c-2.439-17.418-8.709-35.533-17.07-53.3C445.59,70.918,428.868,35.037,406.572.2a234.869,234.869,0,0,1,12.193,22.3c2.09,4.18,4.529,9.058,6.619,14.283.348.7.348,1.393.7,1.742,2.787,6.271,5.922,12.89,8.709,19.16-2.09-3.832-3.832-7.316-5.574-10.451,1.045,2.787,1.742,5.922,2.787,8.709a156.13,156.13,0,0,1,5.574,41.456c.348,27.173-6.967,52.6-17.767,76.641C395.076,228.729,350.834,275.061,305.2,318.607,209.4,410.228,87.817,491.049,28.943,603.572,4.905,649.9-6.242,704.25,3.512,761.73,7.344,785.071,16.4,808.76,27.9,832.449,27.2,831.752,29.639,836.629,35.213,847.428Z" transform="translate(111.677 4889.06)"/>
  </g>
</svg>
